<svg width="23" height="22" viewBox="0 0 23 22" fill="none" xmlns="http://www.w3.org/2000/svg">
<path d="M5.94967 7.33791C6.24205 4.72547 8.45094 2.75 11.0797 2.75V2.75C13.7084 2.75 15.9173 4.72547 16.2097 7.3379L16.4376 9.37415C16.5575 10.4453 16.9082 11.4777 17.4657 12.4002L17.9979 13.2808C18.4111 13.9645 18.6177 14.3063 18.6167 14.5869C18.6154 14.9345 18.4338 15.2565 18.137 15.4373C17.8973 15.5833 17.4979 15.5833 16.6991 15.5833H5.46025C4.66145 15.5833 4.26204 15.5833 4.02238 15.4373C3.72556 15.2565 3.54393 14.9345 3.54268 14.5869C3.54168 14.3063 3.74826 13.9645 4.16143 13.2808L4.69364 12.4002C5.25113 11.4777 5.6019 10.4453 5.72178 9.37415L5.94967 7.33791Z" stroke="#33363F" stroke-width="2"/>
<path d="M7.38648 15.5833C7.38648 16.0648 7.482 16.5416 7.66761 16.9865C7.85321 17.4314 8.12525 17.8356 8.4682 18.1761C8.81115 18.5165 9.21829 18.7866 9.66637 18.9709C10.1145 19.1552 10.5947 19.25 11.0797 19.25C11.5647 19.25 12.045 19.1552 12.4931 18.9709C12.9411 18.7866 13.3483 18.5165 13.6912 18.1761C14.0342 17.8356 14.3062 17.4314 14.4918 16.9865C14.6774 16.5416 14.7729 16.0648 14.7729 15.5833" stroke="#33363F" stroke-width="2" stroke-linecap="round"/>
</svg>
