<svg width="22" height="22" viewBox="0 0 22 22" fill="none" xmlns="http://www.w3.org/2000/svg">
<path d="M17.1189 5.20108L11.7878 2.91635C11.2847 2.70074 10.7152 2.70074 10.2121 2.91635L4.88109 5.20108C4.06186 5.55218 3.57382 6.40302 3.68438 7.28744L4.21403 11.5247C4.43418 13.2859 5.31515 14.8977 6.67868 16.034L9.71961 18.5681C10.4613 19.1861 11.5387 19.1861 12.2803 18.5681L15.3213 16.034C16.6848 14.8977 17.5658 13.2859 17.7859 11.5247L18.3156 7.28745C18.4261 6.40303 17.9381 5.55218 17.1189 5.20108Z" stroke="#33363F" stroke-width="2" stroke-linecap="round"/>
<path d="M8.25002 11L10.5688 13.3187C10.7919 13.5418 11.1633 13.5051 11.3383 13.2425L14.6667 8.25" stroke="#33363F" stroke-width="2" stroke-linecap="round"/>
</svg>
