<svg width="22" height="22" viewBox="0 0 22 22" fill="none" xmlns="http://www.w3.org/2000/svg">
<path d="M5.5 12.8333H16.5C18.0188 12.8333 19.25 14.0645 19.25 15.5833C19.25 17.1021 18.0188 18.3333 16.5 18.3333H5.5C3.98122 18.3333 2.75 17.1021 2.75 15.5833C2.75 14.0645 3.98122 12.8333 5.5 12.8333Z" stroke="#33363F" stroke-width="2"/>
<path d="M2.75 15.5833C2.75 14.3183 4.0593 9.12543 4.87105 6.02745C5.09014 5.1913 5.19968 4.77323 5.44169 4.45531C5.65359 4.17692 5.94165 3.95461 6.26466 3.82019C6.63355 3.66667 7.07041 3.66667 7.94415 3.66667H14.0559C14.9296 3.66667 15.3665 3.66667 15.7353 3.82019C16.0583 3.95461 16.3464 4.17692 16.5583 4.45531C16.8003 4.77323 16.9099 5.1913 17.129 6.02745C17.9407 9.12543 19.25 14.3183 19.25 15.5833" stroke="#33363F" stroke-width="2"/>
<rect x="15.5833" y="14.6667" width="1.83333" height="1.83333" rx="0.916667" fill="#33363F"/>
<rect x="4.58331" y="14.6667" width="3.66667" height="1.83333" rx="0.916667" fill="#33363F"/>
</svg>
