<svg width="22" height="22" viewBox="0 0 22 22" fill="none" xmlns="http://www.w3.org/2000/svg">
<path d="M3.66669 12.25C3.66669 10.3644 3.66669 9.42157 4.25247 8.83579C4.83826 8.25 5.78107 8.25 7.66669 8.25H14.3334C16.219 8.25 17.1618 8.25 17.7476 8.83579C18.3334 9.42157 18.3334 10.3644 18.3334 12.25V13.25C18.3334 16.0784 18.3334 17.4926 17.4547 18.3713C16.576 19.25 15.1618 19.25 12.3334 19.25H9.66669C6.83826 19.25 5.42405 19.25 4.54537 18.3713C3.66669 17.4926 3.66669 16.0784 3.66669 13.25V12.25Z" stroke="#33363F" stroke-width="2"/>
<path d="M14.6667 7.33333V6.41667C14.6667 4.39162 13.0251 2.75 11 2.75V2.75C8.975 2.75 7.33337 4.39162 7.33337 6.41667V7.33333" stroke="#33363F" stroke-width="2" stroke-linecap="round"/>
<circle cx="11" cy="13.75" r="1.83333" fill="#33363F"/>
</svg>
