<svg width="24" height="24" viewBox="0 0 24 24" fill="none" xmlns="http://www.w3.org/2000/svg">
<path fill-rule="evenodd" clip-rule="evenodd" d="M18.2978 5.68316C17.9189 5.75056 17.3816 5.92687 16.5215 6.21359L10.0305 8.37725C9.20309 8.65305 8.61933 8.84796 8.19942 9.0118C7.99175 9.09282 7.84712 9.15755 7.74655 9.21061C7.66136 9.25555 7.63074 9.2803 7.62892 9.28157C7.22306 9.67447 7.22306 10.3255 7.62892 10.7184C7.63074 10.7197 7.66136 10.7444 7.74655 10.7894C7.84712 10.8424 7.99175 10.9072 8.19942 10.9882C8.61933 11.152 9.20309 11.3469 10.0305 11.6227C10.0495 11.6291 10.0683 11.6353 10.087 11.6416C10.3604 11.7325 10.6004 11.8123 10.8213 11.9292C11.3538 12.2108 11.7892 12.6461 12.0708 13.1786C12.1877 13.3996 12.2675 13.6396 12.3584 13.913C12.3646 13.9317 12.3709 13.9505 12.3772 13.9695C12.653 14.7969 12.8479 15.3806 13.0118 15.8005C13.0928 16.0082 13.1575 16.1528 13.2106 16.2534C13.2555 16.3386 13.2803 16.3692 13.2815 16.371C13.6744 16.7769 14.3255 16.7769 14.7184 16.371C14.7197 16.3692 14.7444 16.3386 14.7894 16.2534C14.8424 16.1528 14.9071 16.0082 14.9882 15.8005C15.152 15.3806 15.3469 14.7969 15.6227 13.9695L17.7864 7.4785C18.0731 6.61833 18.2494 6.0811 18.3168 5.7022C18.3182 5.69431 18.3195 5.68663 18.3208 5.67917C18.3133 5.68043 18.3057 5.68175 18.2978 5.68316ZM18.5567 5.66004C18.5565 5.66023 18.5532 5.65996 18.5475 5.65869C18.5541 5.65923 18.5569 5.65986 18.5567 5.66004ZM18.3413 5.45246C18.34 5.44672 18.3397 5.44343 18.3399 5.44323C18.3401 5.44302 18.3407 5.44588 18.3413 5.45246ZM17.9475 3.71407C18.4985 3.61605 19.253 3.58687 19.833 4.16692C20.4131 4.74698 20.3839 5.50149 20.2859 6.05248C20.1896 6.59391 19.9631 7.27303 19.7076 8.03932L19.6837 8.11096L17.5201 14.6019L17.5107 14.6301C17.2464 15.423 17.0358 16.0549 16.8514 16.5275C16.6781 16.9717 16.4726 17.4321 16.1631 17.7541C14.9826 18.9826 13.0173 18.9826 11.8368 17.7541C11.5274 17.4321 11.3219 16.9717 11.1486 16.5275C10.9642 16.055 10.7536 15.4231 10.4893 14.6303L10.4799 14.6019C10.3595 14.2407 10.3323 14.1694 10.3028 14.1136C10.209 13.9361 10.0638 13.791 9.88634 13.6971C9.83052 13.6676 9.75923 13.6405 9.39803 13.5201L9.3697 13.5107C8.57691 13.2464 7.945 13.0358 7.47246 12.8514C7.02827 12.6781 6.56791 12.4726 6.24585 12.1631C5.01741 10.9827 5.01741 9.01734 6.24585 7.83687C6.56791 7.52739 7.02827 7.3219 7.47246 7.14859C7.94502 6.96422 8.57696 6.75357 9.36978 6.4893L9.39803 6.47988L15.889 4.31622C15.913 4.30824 15.9368 4.30028 15.9606 4.29235C16.7269 4.03683 17.4061 3.81039 17.9475 3.71407Z" fill="#33363F"/>
</svg>
