<svg width="22" height="22" viewBox="0 0 22 22" fill="none" xmlns="http://www.w3.org/2000/svg">
<path d="M1.83331 11L1.05244 10.3753L0.552688 11L1.05244 11.6247L1.83331 11ZM10.0833 12C10.6356 12 11.0833 11.5523 11.0833 11C11.0833 10.4477 10.6356 10 10.0833 10V12ZM4.71911 5.79198L1.05244 10.3753L2.61418 11.6247L6.28085 7.04137L4.71911 5.79198ZM1.05244 11.6247L4.71911 16.208L6.28085 14.9586L2.61418 10.3753L1.05244 11.6247ZM1.83331 12H10.0833V10H1.83331V12Z" fill="#33363F"/>
<path d="M9.16669 7.45427V7.05517C9.16669 5.43683 9.16669 4.62766 9.64065 4.06817C10.1146 3.50867 10.9128 3.37565 12.5091 3.10959L13.1803 2.99773C16.4234 2.45721 18.0449 2.18695 19.1058 3.08565C20.1667 3.98435 20.1667 5.62826 20.1667 8.91609V13.0839C20.1667 16.3717 20.1667 18.0156 19.1058 18.9143C18.0449 19.813 16.4234 19.5428 13.1803 19.0023L12.5091 18.8904C10.9128 18.6243 10.1146 18.4913 9.64065 17.9318C9.16669 17.3723 9.16669 16.5632 9.16669 14.9448V14.7271" stroke="#33363F" stroke-width="2"/>
</svg>
