<svg width="22" height="22" viewBox="0 0 22 22" fill="none" xmlns="http://www.w3.org/2000/svg">
<path d="M9.29844 6.07528C10.0195 4.2777 10.38 3.37891 11 3.37891C11.6199 3.37891 11.9805 4.2777 12.7015 6.07528L12.7351 6.15899C13.1425 7.17453 13.3461 7.6823 13.7613 7.99094C14.1764 8.29957 14.7213 8.34837 15.8111 8.44597L16.0082 8.46362C17.7918 8.62336 18.6837 8.70323 18.8745 9.27063C19.0653 9.83803 18.403 10.4406 17.0784 11.6457L16.6363 12.0479C15.9657 12.658 15.6305 12.963 15.4742 13.3628C15.445 13.4374 15.4208 13.5138 15.4017 13.5915C15.2989 14.0083 15.3971 14.4508 15.5935 15.3358L15.6546 15.6113C16.0155 17.2378 16.1959 18.051 15.8809 18.4018C15.7631 18.5329 15.6101 18.6272 15.4402 18.6736C14.9853 18.7977 14.3395 18.2715 13.048 17.2191C12.1999 16.528 11.7759 16.1825 11.289 16.1048C11.0976 16.0742 10.9024 16.0742 10.7109 16.1048C10.2241 16.1825 9.80004 16.528 8.95196 17.2191C7.66042 18.2715 7.01465 18.7977 6.5598 18.6736C6.38984 18.6272 6.23683 18.5329 6.11911 18.4018C5.80407 18.051 5.98451 17.2378 6.34538 15.6113L6.4065 15.3358C6.60285 14.4508 6.70103 14.0083 6.59832 13.5915C6.57915 13.5138 6.55492 13.4374 6.52577 13.3628C6.3695 12.963 6.03423 12.658 5.36368 12.0479L4.92159 11.6457C3.59697 10.4406 2.93466 9.83803 3.12549 9.27063C3.31632 8.70323 4.20815 8.62336 5.99181 8.46362L6.18884 8.44597C7.27868 8.34837 7.8236 8.29957 8.23871 7.99094C8.65382 7.6823 8.8575 7.17453 9.26486 6.15898L9.29844 6.07528Z" stroke="#33363F" stroke-width="2"/>
</svg>
